<svg xmlns="http://www.w3.org/2000/svg" viewBox="0 0 800 600">
  <!-- Background -->
  <rect width="800" height="600" fill="#f5f5f5"/>
  
  <!-- Header -->
  <rect x="0" y="0" width="800" height="60" fill="#ffffff" stroke="#e0e0e0" stroke-width="1"/>
  <text x="20" y="38" font-family="Arial" font-size="24" font-weight="bold" fill="#333333">Journaly</text>
  
  <!-- Nav items -->
  <text x="180" y="38" font-family="Arial" font-size="16" fill="#999999">Dashboard</text>
  <text x="280" y="38" font-family="Arial" font-size="16" fill="#999999">Entries</text>
  <text x="350" y="38" font-family="Arial" font-size="16" fill="#999999">Categories</text>
  <text x="450" y="38" font-family="Arial" font-size="16" fill="#555555">Insights</text>
  
  <!-- User menu -->
  <circle cx="750" cy="30" r="20" fill="#e0e0e0"/>
  <text x="750" y="35" font-family="Arial" font-size="14" fill="#555555" text-anchor="middle">JS</text>
  
  <!-- Main content area -->
  <rect x="20" y="80" width="760" height="500" fill="#ffffff" stroke="#e0e0e0" stroke-width="1" rx="5" ry="5"/>
  
  <!-- Page header -->
  <text x="40" y="120" font-family="Arial" font-size="24" font-weight="bold" fill="#333333">Journal Insights</text>
  <text x="40" y="145" font-family="Arial" font-size="16" fill="#666666">See patterns and trends in your journaling habits</text>
  
  <!-- Time period selector -->
  <rect x="590" y="110" width="170" height="35" fill="#ffffff" stroke="#e0e0e0" stroke-width="1" rx="5" ry="5"/>
  <text x="620" y="132" font-family="Arial" font-size="14" fill="#666666">Last 30 days</text>
  <text x="740" y="132" font-family="Arial" font-size="14" fill="#666666">▼</text>
  
  <!-- Writing frequency chart -->
  <rect x="40" y="170" width="360" height="220" fill="#ffffff" stroke="#e0e0e0" stroke-width="1" rx="5" ry="5"/>
  <text x="60" y="200" font-family="Arial" font-size="18" font-weight="bold" fill="#333333">Writing Frequency</text>
  
  <!-- Calendar heatmap -->
  <rect x="60" y="220" width="320" height="150" fill="#fafafa" rx="5" ry="5"/>
  
  <!-- Calendar days (simplified) -->
  <text x="70" y="245" font-family="Arial" font-size="10" fill="#999999">Mon</text>
  <text x="100" y="245" font-family="Arial" font-size="10" fill="#999999">Tue</text>
  <text x="130" y="245" font-family="Arial" font-size="10" fill="#999999">Wed</text>
  <text x="160" y="245" font-family="Arial" font-size="10" fill="#999999">Thu</text>
  <text x="190" y="245" font-family="Arial" font-size="10" fill="#999999">Fri</text>
  <text x="220" y="245" font-family="Arial" font-size="10" fill="#999999">Sat</text>
  <text x="250" y="245" font-family="Arial" font-size="10" fill="#999999">Sun</text>
  
  <!-- Calendar cells (sample heat map) -->
  <rect x="70" y="255" width="20" height="20" fill="#edf2f7" rx="2" ry="2"/>
  <rect x="100" y="255" width="20" height="20" fill="#c3dafe" rx="2" ry="2"/>
  <rect x="130" y="255" width="20" height="20" fill="#a3bffa" rx="2" ry="2"/>
  <rect x="160" y="255" width="20" height="20" fill="#7f9cf5" rx="2" ry="2"/>
  <rect x="190" y="255" width="20" height="20" fill="#667eea" rx="2" ry="2"/>
  <rect x="220" y="255" width="20" height="20" fill="#5a67d8" rx="2" ry="2"/>
  <rect x="250" y="255" width="20" height="20" fill="#4c51bf" rx="2" ry="2"/>
  
  <!-- More rows (simplified) -->
  <rect x="70" y="285" width="20" height="20" fill="#a3bffa" rx="2" ry="2"/>
  <rect x="100" y="285" width="20" height="20" fill="#edf2f7" rx="2" ry="2"/>
  <rect x="130" y="285" width="20" height="20" fill="#edf2f7" rx="2" ry="2"/>
  <rect x="160" y="285" width="20" height="20" fill="#c3dafe" rx="2" ry="2"/>
  <rect x="190" y="285" width="20" height="20" fill="#a3bffa" rx="2" ry="2"/>
  <rect x="220" y="285" width="20" height="20" fill="#7f9cf5" rx="2" ry="2"/>
  <rect x="250" y="285" width="20" height="20" fill="#edf2f7" rx="2" ry="2"/>
  
  <rect x="70" y="315" width="20" height="20" fill="#edf2f7" rx="2" ry="2"/>
  <rect x="100" y="315" width="20" height="20" fill="#c3dafe" rx="2" ry="2"/>
  <rect x="130" y="315" width="20" height="20" fill="#5a67d8" rx="2" ry="2"/>
  <rect x="160" y="315" width="20" height="20" fill="#4c51bf" rx="2" ry="2"/>
  <rect x="190" y="315" width="20" height="20" fill="#edf2f7" rx="2" ry="2"/>
  <rect x="220" y="315" width="20" height="20" fill="#c3dafe" rx="2" ry="2"/>
  <rect x="250" y="315" width="20" height="20" fill="#a3bffa" rx="2" ry="2"/>
  
  <!-- Legend -->
  <text x="60" y="355" font-family="Arial" font-size="12" fill="#999999">Less</text>
  <rect x="90" y="345" width="15" height="15" fill="#edf2f7" rx="2" ry="2"/>
  <rect x="115" y="345" width="15" height="15" fill="#c3dafe" rx="2" ry="2"/>
  <rect x="140" y="345" width="15" height="15" fill="#a3bffa" rx="2" ry="2"/>
  <rect x="165" y="345" width="15" height="15" fill="#7f9cf5" rx="2" ry="2"/>
  <rect x="190" y="345" width="15" height="15" fill="#667eea" rx="2" ry="2"/>
  <rect x="215" y="345" width="15" height="15" fill="#5a67d8" rx="2" ry="2"/>
  <rect x="240" y="345" width="15" height="15" fill="#4c51bf" rx="2" ry="2"/>
  <text x="265" y="355" font-family="Arial" font-size="12" fill="#999999">More</text>
  
  <!-- Categories distribution -->
  <rect x="420" y="170" width="360" height="220" fill="#ffffff" stroke="#e0e0e0" stroke-width="1" rx="5" ry="5"/>
  <text x="440" y="200" font-family="Arial" font-size="18" font-weight="bold" fill="#333333">Categories Distribution</text>
  
  <!-- Donut chart -->
  <circle cx="560" cy="275" r="70" fill="#ffffff" stroke="#e0e0e0" stroke-width="1"/>
  <circle cx="560" cy="275" r="40" fill="#ffffff"/>
  
  <!-- Donut segments -->
  <path d="M 560 205 A 70 70 0 0 1 622 250 L 588 270 A 40 40 0 0 0 560 235 Z" fill="#4c1d95"/>
  <path d="M 622 250 A 70 70 0 0 1 607 334 L 587 312 A 40 40 0 0 0 588 270 Z" fill="#5b21b6"/>
  <path d="M 607 334 A 70 70 0 0 1 513 334 L 531 312 A 40 40 0 0 0 587 312 Z" fill="#6d28d9"/>
  <path d="M 513 334 A 70 70 0 0 1 498 250 L 532 270 A 40 40 0 0 0 531 312 Z" fill="#7c3aed"/>
  <path d="M 498 250 A 70 70 0 0 1 560 205 L 560 235 A 40 40 0 0 0 532 270 Z" fill="#8b5cf6"/>
  
  <!-- Legend -->
  <rect x="660" y="230" width="12" height="12" fill="#4c1d95"/>
  <text x="678" y="240" font-family="Arial" font-size="12" fill="#666666">Personal (35%)</text>
  
  <rect x="660" y="255" width="12" height="12" fill="#5b21b6"/>
  <text x="678" y="265" font-family="Arial" font-size="12" fill="#666666">Work (25%)</text>
  
  <rect x="660" y="280" width="12" height="12" fill="#6d28d9"/>
  <text x="678" y="290" font-family="Arial" font-size="12" fill="#666666">Travel (20%)</text>
  
  <rect x="660" y="305" width="12" height="12" fill="#7c3aed"/>
  <text x="678" y="315" font-family="Arial" font-size="12" fill="#666666">Ideas (15%)</text>
  
  <rect x="660" y="330" width="12" height="12" fill="#8b5cf6"/>
  <text x="678" y="340" font-family="Arial" font-size="12" fill="#666666">Other (5%)</text>
  
  <!-- Word count trends -->
  <rect x="40" y="410" width="360" height="150" fill="#ffffff" stroke="#e0e0e0" stroke-width="1" rx="5" ry="5"/>
  <text x="60" y="440" font-family="Arial" font-size="18" font-weight="bold" fill="#333333">Word Count Trends</text>
  
  <!-- Simplified line chart -->
  <polyline points="70,510 110,490 150,500 190,470 230,480 270,450 310,460 350,440" 
            fill="none" stroke="#4f46e5" stroke-width="2"/>
            
  <!-- X axis -->
  <line x1="70" y1="520" x2="350" y2="520" stroke="#e0e0e0" stroke-width="1"/>
  <!-- Y axis -->
  <line x1="70" y1="520" x2="70" y2="460" stroke="#e0e0e0" stroke-width="1"/>
  
  <!-- X axis labels -->
  <text x="70" y="535" font-family="Arial" font-size="10" fill="#999999">Mar 20</text>
  <text x="150" y="535" font-family="Arial" font-size="10" fill="#999999">Mar 22</text>
  <text x="230" y="535" font-family="Arial" font-size="10" fill="#999999">Mar 24</text>
  <text x="310" y="535" font-family="Arial" font-size="10" fill="#999999">Mar 26</text>
  
  <!-- Time of day analysis -->
  <rect x="420" y="410" width="360" height="150" fill="#ffffff" stroke="#e0e0e0" stroke-width="1" rx="5" ry="5"/>
  <text x="440" y="440" font-family="Arial" font-size="18" font-weight="bold" fill="#333333">Writing Time Analysis</text>
  
  <!-- Simplified bar chart -->
  <rect x="460" y="510" width="40" height="20" fill="#c7d2fe" rx="2" ry="2"/>
  <rect x="510" y="490" width="40" height="40" fill="#a5b4fc" rx="2" ry="2"/>
  <rect x="560" y="470" width="40" height="60" fill="#818cf8" rx="2" ry="2"/>
  <rect x="610" y="500" width="40" height="30" fill="#6366f1" rx="2" ry="2"/>
  <rect x="660" y="480" width="40" height="50" fill="#4f46e5" rx="2" ry="2"/>
  
  <!-- X axis -->
  <line x1="460" y1="530" x2="700" y2="530" stroke="#e0e0e0" stroke-width="1"/>
  
  <!-- X axis labels -->
  <text x="480" y="545" font-family="Arial" font-size="10" fill="#999999">Morning</text>
  <text x="530" y="545" font-family="Arial" font-size="10" fill="#999999">Noon</text>
  <text x="580" y="545" font-family="Arial" font-size="10" fill="#999999">Afternoon</text>
  <text x="630" y="545" font-family="Arial" font-size="10" fill="#999999">Evening</text>
  <text x="680" y="545" font-family="Arial" font-size="10" fill="#999999">Night</text>
</svg>