<svg xmlns="http://www.w3.org/2000/svg" viewBox="0 0 800 600">
  <!-- Background -->
  <rect width="800" height="600" fill="#f5f5f5"/>
  
  <!-- Header -->
  <rect x="0" y="0" width="800" height="60" fill="#ffffff" stroke="#e0e0e0" stroke-width="1"/>
  <text x="20" y="38" font-family="Arial" font-size="24" font-weight="bold" fill="#333333">Journaly</text>
  
  <!-- Nav items -->
  <text x="180" y="38" font-family="Arial" font-size="16" fill="#999999">Dashboard</text>
  <text x="280" y="38" font-family="Arial" font-size="16" fill="#555555">Entries</text>
  <text x="350" y="38" font-family="Arial" font-size="16" fill="#999999">Categories</text>
  <text x="450" y="38" font-family="Arial" font-size="16" fill="#999999">Insights</text>
  
  <!-- User menu -->
  <circle cx="750" cy="30" r="20" fill="#e0e0e0"/>
  <text x="750" y="35" font-family="Arial" font-size="14" fill="#555555" text-anchor="middle">JS</text>
  
  <!-- Main content -->
  <rect x="20" y="80" width="760" height="500" fill="#ffffff" stroke="#e0e0e0" stroke-width="1" rx="5" ry="5"/>
  
  <!-- Page header -->
  <text x="40" y="120" font-family="Arial" font-size="24" font-weight="bold" fill="#333333">Journal Entries</text>
  
  <!-- Search and filter -->
  <rect x="40" y="140" width="300" height="40" fill="#ffffff" stroke="#e0e0e0" stroke-width="1" rx="5" ry="5"/>
  <text x="60" y="165" font-family="Arial" font-size="14" fill="#999999">Search entries...</text>
  
  <!-- Category filter -->
  <rect x="360" y="140" width="150" height="40" fill="#ffffff" stroke="#e0e0e0" stroke-width="1" rx="5" ry="5"/>
  <text x="380" y="165" font-family="Arial" font-size="14" fill="#666666">All Categories</text>
  <text x="490" y="165" font-family="Arial" font-size="14" fill="#666666">▼</text>
  
  <!-- Date filter -->
  <rect x="530" y="140" width="150" height="40" fill="#ffffff" stroke="#e0e0e0" stroke-width="1" rx="5" ry="5"/>
  <text x="550" y="165" font-family="Arial" font-size="14" fill="#666666">All Dates</text>
  <text x="660" y="165" font-family="Arial" font-size="14" fill="#666666">▼</text>
  
  <!-- New entry button -->
  <rect x="700" y="140" width="100" height="40" fill="#4f46e5" rx="5" ry="5"/>
  <text x="750" y="165" font-family="Arial" font-size="14" fill="#ffffff" text-anchor="middle">New Entry</text>
  
  <!-- Entries header -->
  <rect x="40" y="200" width="720" height="40" fill="#fafafa" stroke="#e0e0e0" stroke-width="1"/>
  <text x="60" y="225" font-family="Arial" font-size="14" font-weight="bold" fill="#555555">Title</text>
  <text x="360" y="225" font-family="Arial" font-size="14" font-weight="bold" fill="#555555">Categories</text>
  <text x="520" y="225" font-family="Arial" font-size="14" font-weight="bold" fill="#555555">Date</text>
  <text x="650" y="225" font-family="Arial" font-size="14" font-weight="bold" fill="#555555">Actions</text>
  
  <!-- Entry 1 -->
  <rect x="40" y="240" width="720" height="60" fill="#ffffff" stroke="#e0e0e0" stroke-width="1"/>
  <text x="60" y="275" font-family="Arial" font-size="16" fill="#333333">Morning Reflection</text>
  <rect x="360" y="260" width="70" height="25" fill="#ebf8ff" rx="12" ry="12"/>
  <text x="395" y="277" font-family="Arial" font-size="12" fill="#3182ce" text-anchor="middle">Personal</text>
  <text x="520" y="275" font-family="Arial" font-size="14" fill="#666666">Mar 26, 2025</text>
  <rect x="650" y="260" width="35" height="20" fill="#f5f5f5" rx="3" ry="3" stroke="#e0e0e0" stroke-width="1"/>
  <text x="667" y="275" font-family="Arial" font-size="12" fill="#666666" text-anchor="middle">Edit</text>
  <rect x="695" y="260" width="45" height="20" fill="#f5f5f5" rx="3" ry="3" stroke="#e0e0e0" stroke-width="1"/>
  <text x="717" y="275" font-family="Arial" font-size="12" fill="#666666" text-anchor="middle">Delete</text>
  
  <!-- Entry 2 -->
  <rect x="40" y="300" width="720" height="60" fill="#ffffff" stroke="#e0e0e0" stroke-width="1"/>
  <text x="60" y="335" font-family="Arial" font-size="16" fill="#333333">Project Planning</text>
  <rect x="360" y="320" width="60" height="25" fill="#f0fff4" rx="12" ry="12"/>
  <text x="390" y="337" font-family="Arial" font-size="12" fill="#38a169" text-anchor="middle">Work</text>
  <text x="520" y="335" font-family="Arial" font-size="14" fill="#666666">Mar 25, 2025</text>
  <rect x="650" y="320" width="35" height="20" fill="#f5f5f5" rx="3" ry="3" stroke="#e0e0e0" stroke-width="1"/>
  <text x="667" y="335" font-family="Arial" font-size="12" fill="#666666" text-anchor="middle">Edit</text>
  <rect x="695" y="320" width="45" height="20" fill="#f5f5f5" rx="3" ry="3" stroke="#e0e0e0" stroke-width="1"/>
  <text x="717" y="335" font-family="Arial" font-size="12" fill="#666666" text-anchor="middle">Delete</text>
  
  <!-- Entry 3 -->
  <rect x="40" y="360" width="720" height="60" fill="#ffffff" stroke="#e0e0e0" stroke-width="1"/>
  <text x="60" y="395" font-family="Arial" font-size="16" fill="#333333">Weekend Trip Ideas</text>
  <rect x="360" y="380" width="70" height="25" fill="#faf5ff" rx="12" ry="12"/>
  <text x="395" y="397" font-family="Arial" font-size="12" fill="#805ad5" text-anchor="middle">Travel</text>
  <rect x="440" y="380" width="60" height="25" fill="#fff5f7" rx="12" ry="12"/>
  <text x="470" y="397" font-family="Arial" font-size="12" fill="#dd6b20" text-anchor="middle">Ideas</text>
  <text x="520" y="395" font-family="Arial" font-size="14" fill="#666666">Mar 24, 2025</text>
  <rect x="650" y="380" width="35" height="20" fill="#f5f5f5" rx="3" ry="3" stroke="#e0e0e0" stroke-width="1"/>
  <text x="667" y="395" font-family="Arial" font-size="12" fill="#666666" text-anchor="middle">Edit</text>
  <rect x="695" y="380" width="45" height="20" fill="#f5f5f5" rx="3" ry="3" stroke="#e0e0e0" stroke-width="1"/>
  <text x="717" y="395" font-family="Arial" font-size="12" fill="#666666" text-anchor="middle">Delete</text>
  
  <!-- Entry 4 -->
  <rect x="40" y="420" width="720" height="60" fill="#ffffff" stroke="#e0e0e0" stroke-width="1"/>
  <text x="60" y="455" font-family="Arial" font-size="16" fill="#333333">Meeting Notes</text>
  <rect x="360" y="440" width="60" height="25" fill="#f0fff4" rx="12" ry="12"/>
  <text x="390" y="457" font-family="Arial" font-size="12" fill="#38a169" text-anchor="middle">Work</text>
  <text x="520" y="455" font-family="Arial" font-size="14" fill="#666666">Mar 23, 2025</text>
  <rect x="650" y="440" width="35" height="20" fill="#f5f5f5" rx="3" ry="3" stroke="#e0e0e0" stroke-width="1"/>
  <text x="667" y="455" font-family="Arial" font-size="12" fill="#666666" text-anchor="middle">Edit</text>
  <rect x="695" y="440" width="45" height="20" fill="#f5f5f5" rx="3" ry="3" stroke="#e0e0e0" stroke-width="1"/>
  <text x="717" y="455" font-family="Arial" font-size="12" fill="#666666" text-anchor="middle">Delete</text>
  
  <!-- Entry 5 -->
  <rect x="40" y="480" width="720" height="60" fill="#ffffff" stroke="#e0e0e0" stroke-width="1"/>
  <text x="60" y="515" font-family="Arial" font-size="16" fill="#333333">Book Reflections</text>
  <rect x="360" y="500" width="70" height="25" fill="#ebf8ff" rx="12" ry="12"/>
  <text x="395" y="517" font-family="Arial" font-size="12" fill="#3182ce" text-anchor="middle">Personal</text>
  <text x="520" y="515" font-family="Arial" font-size="14" fill="#666666">Mar 22, 2025</text>
  <rect x="650" y="500" width="35" height="20" fill="#f5f5f5" rx="3" ry="3" stroke="#e0e0e0" stroke-width="1"/>
  <text x="667" y="515" font-family="Arial" font-size="12" fill="#666666" text-anchor="middle">Edit</text>
  <rect x="695" y="500" width="45" height="20" fill="#f5f5f5" rx="3" ry="3" stroke="#e0e0e0" stroke-width="1"/>
  <text x="717" y="515" font-family="Arial" font-size="12" fill="#666666" text-anchor="middle">Delete</text>
  
  <!-- Pagination -->
  <rect x="300" y="560" width="200" height="30" fill="none"/>
  <circle cx="350" cy="575" r="15" fill="#4f46e5"/>
  <text x="350" y="580" font-family="Arial" font-size="14" fill="#ffffff" text-anchor="middle">1</text>
  <circle cx="385" cy="575" r="15" fill="#ffffff" stroke="#e0e0e0" stroke-width="1"/>
  <text x="385" y="580" font-family="Arial" font-size="14" fill="#666666" text-anchor="middle">2</text>
  <circle cx="420" cy="575" r="15" fill="#ffffff" stroke="#e0e0e0" stroke-width="1"/>
  <text x="420" y="580" font-family="Arial" font-size="14" fill="#666666" text-anchor="middle">3</text>
  <text x="450" y="580" font-family="Arial" font-size="14" fill="#666666" text-anchor="middle">...</text>
</svg>